<?xml version="1.0" encoding="UTF-8" standalone="no"?>
<!-- Created with Inkscape (http://www.inkscape.org/) -->

<svg
   xmlns:dc="http://purl.org/dc/elements/1.1/"
   xmlns:cc="http://creativecommons.org/ns#"
   xmlns:rdf="http://www.w3.org/1999/02/22-rdf-syntax-ns#"
   xmlns:svg="http://www.w3.org/2000/svg"
   xmlns="http://www.w3.org/2000/svg"
   xmlns:xlink="http://www.w3.org/1999/xlink"
   xmlns:sodipodi="http://sodipodi.sourceforge.net/DTD/sodipodi-0.dtd"
   xmlns:inkscape="http://www.inkscape.org/namespaces/inkscape"
   width="125"
   height="100"
   id="svg3081"
   version="1.1"
   inkscape:version="0.48.2 r9819"
   sodipodi:docname="ch.svg"
   inkscape:export-filename="/home/cristian/web-ch2/images/ch.png"
   inkscape:export-xdpi="90"
   inkscape:export-ydpi="90">
  <defs
     id="defs3083">
    <linearGradient
       id="linearGradient3931">
      <stop
         style="stop-color:#ffa569;stop-opacity:1;"
         offset="0"
         id="stop3933" />
      <stop
         style="stop-color:#be7337;stop-opacity:1;"
         offset="1"
         id="stop3935" />
    </linearGradient>
    <linearGradient
       id="linearGradient3919">
      <stop
         id="stop3927"
         offset="0"
         style="stop-color:#ffffff;stop-opacity:1;" />
      <stop
         style="stop-color:#d2d2d2;stop-opacity:1;"
         offset="1"
         id="stop3923" />
    </linearGradient>
    <linearGradient
       inkscape:collect="always"
       xlink:href="#linearGradient3919"
       id="linearGradient3925"
       x1="127.82701"
       y1="469.42542"
       x2="127.82701"
       y2="414.41922"
       gradientUnits="userSpaceOnUse" />
    <linearGradient
       inkscape:collect="always"
       xlink:href="#linearGradient3931"
       id="linearGradient3937"
       x1="96.70491"
       y1="413.42834"
       x2="96.70491"
       y2="380.15985"
       gradientUnits="userSpaceOnUse" />
    <linearGradient
       inkscape:collect="always"
       xlink:href="#linearGradient3931"
       id="linearGradient4106"
       gradientUnits="userSpaceOnUse"
       x1="96.70491"
       y1="413.42834"
       x2="96.70491"
       y2="380.15985" />
    <linearGradient
       inkscape:collect="always"
       xlink:href="#linearGradient3919"
       id="linearGradient4112"
       gradientUnits="userSpaceOnUse"
       x1="127.82701"
       y1="469.42542"
       x2="127.82701"
       y2="414.41922" />
    <linearGradient
       inkscape:collect="always"
       xlink:href="#linearGradient3919"
       id="linearGradient3007"
       gradientUnits="userSpaceOnUse"
       x1="127.82701"
       y1="469.42542"
       x2="127.82701"
       y2="414.41922" />
    <linearGradient
       inkscape:collect="always"
       xlink:href="#linearGradient3919"
       id="linearGradient3009"
       gradientUnits="userSpaceOnUse"
       x1="127.82701"
       y1="469.42542"
       x2="127.82701"
       y2="414.41922" />
    <linearGradient
       inkscape:collect="always"
       xlink:href="#linearGradient3919"
       id="linearGradient3011"
       gradientUnits="userSpaceOnUse"
       x1="127.82701"
       y1="469.42542"
       x2="127.82701"
       y2="414.41922" />
    <linearGradient
       inkscape:collect="always"
       xlink:href="#linearGradient3931"
       id="linearGradient3013"
       gradientUnits="userSpaceOnUse"
       x1="96.70491"
       y1="413.42834"
       x2="96.70491"
       y2="380.15985" />
    <linearGradient
       inkscape:collect="always"
       xlink:href="#linearGradient3931"
       id="linearGradient3015"
       gradientUnits="userSpaceOnUse"
       x1="96.70491"
       y1="413.42834"
       x2="96.70491"
       y2="380.15985" />
  </defs>
  <sodipodi:namedview
     id="base"
     pagecolor="#ffffff"
     bordercolor="#666666"
     borderopacity="1.0"
     inkscape:pageopacity="0.0"
     inkscape:pageshadow="2"
     inkscape:zoom="5.6"
     inkscape:cx="58.857993"
     inkscape:cy="50.863714"
     inkscape:document-units="px"
     inkscape:current-layer="layer1"
     showgrid="false"
     inkscape:window-width="1920"
     inkscape:window-height="972"
     inkscape:window-x="0"
     inkscape:window-y="37"
     inkscape:window-maximized="1" />
  <metadata
     id="metadata3086">
    <rdf:RDF>
      <cc:Work
         rdf:about="">
        <dc:format>image/svg+xml</dc:format>
        <dc:type
           rdf:resource="http://purl.org/dc/dcmitype/StillImage" />
        <dc:title></dc:title>
      </cc:Work>
    </rdf:RDF>
  </metadata>
  <g
     inkscape:label="Layer 1"
     inkscape:groupmode="layer"
     id="layer1"
     transform="translate(0,-952.36218)">
    <rect
       style="fill:#000000;fill-opacity:1"
       id="rect3003"
       width="125.35714"
       height="100"
       x="-0.17857143"
       y="0.17857143"
       transform="translate(0,952.36218)" />
    <g
       id="g3000"
       transform="matrix(0.95738505,0,0,0.95738505,-7.4693467,42.288622)">
      <g
         id="flowRoot2985-5-5-6-7"
         style="font-size:40px;font-style:normal;font-weight:normal;line-height:125%;letter-spacing:0px;word-spacing:0px;fill:url(#linearGradient3011);fill-opacity:1;stroke:none;font-family:Sans"
         transform="matrix(1.4291031,0,0,1.4291031,-115.05261,379.37019)">
        <path
           inkscape:connector-curvature="0"
           id="path4056"
           style="font-size:72px;font-variant:normal;font-stretch:normal;text-align:start;writing-mode:lr-tb;text-anchor:start;fill:url(#linearGradient3007);font-family:Ubuntu Mono;-inkscape-font-specification:Ubuntu Mono"
           d="m 116.6825,463.04675 c -1.68003,0.96 -3.48003,1.656 -5.4,2.088 -1.87203,0.48 -3.88802,0.72 -6.048,0.72 -2.64002,0 -5.08802,-0.456 -7.344,-1.368 -2.208012,-0.96 -4.12801,-2.376 -5.76,-4.248 -1.632007,-1.91999 -2.928006,-4.34399 -3.888,-7.272 -0.912004,-2.92799 -1.368003,-6.38398 -1.368,-10.368 -3e-6,-3.79197 0.479996,-7.12797 1.44,-10.008 1.007994,-2.87996 2.351993,-5.30396 4.032,-7.272 1.67999,-1.96796 3.647988,-3.45596 5.904,-4.464 2.25598,-1.00795 4.65598,-1.51195 7.2,-1.512 1.77598,5e-5 3.57597,0.24005 5.4,0.72 1.87197,0.48004 3.69597,1.27204 5.472,2.376 l -1.728,4.896 c -3.16803,-1.82396 -6.14402,-2.73596 -8.928,-2.736 -1.96802,4e-5 -3.74402,0.43204 -5.328,1.296 -1.536015,0.81604 -2.856014,2.01604 -3.96,3.6 -1.104012,1.58403 -1.968011,3.48003 -2.592,5.688 -0.57601,2.20803 -0.864009,4.68003 -0.864,7.416 -9e-6,3.07202 0.31199,5.73602 0.936,7.992 0.671989,2.25601 1.583988,4.12801 2.736,5.616 1.151986,1.48801 2.519984,2.59201 4.104,3.312 1.63198,0.72 3.38398,1.08 5.256,1.08 1.39198,0 2.85597,-0.168 4.392,-0.504 1.53597,-0.38399 3.11997,-1.03199 4.752,-1.944 l 1.584,4.896" />
        <path
           inkscape:connector-curvature="0"
           id="path4058"
           style="font-size:72px;font-variant:normal;font-stretch:normal;text-align:start;writing-mode:lr-tb;text-anchor:start;fill:url(#linearGradient3009);font-family:Ubuntu Mono;-inkscape-font-specification:Ubuntu Mono"
           d="m 146.4185,420.35075 5.904,0 0,44.568 -5.904,0 0,-20.736 -17.712,0 0,20.736 -5.904,0 0,-44.568 5.904,0 0,18.792 17.712,0 0,-18.792" />
      </g>
      <g
         id="flowRoot2985-5-5-5"
         style="font-size:40px;font-style:normal;font-weight:normal;line-height:125%;letter-spacing:0px;word-spacing:0px;fill:url(#linearGradient3015);fill-opacity:1;stroke:none;font-family:Sans"
         transform="matrix(1.3905843,0,0,1.3905843,-9.0471175,432.42043)">
        <path
           inkscape:connector-curvature="0"
           id="path4061"
           style="font-size:65.00091553%;baseline-shift:super;fill:url(#linearGradient3013)"
           d="m 103.87399,388.63333 c -2e-5,0.99844 -0.18723,1.96565 -0.56161,2.90164 -0.37443,0.90484 -0.87363,1.79405 -1.49762,2.66764 -0.62403,0.87363 -1.32604,1.71604 -2.106033,2.52724 -0.780026,0.81122 -1.575636,1.59123 -2.386833,2.34003 -0.405619,0.37442 -0.873625,0.82682 -1.40402,1.35722 -0.530419,0.49922 -1.029626,1.02962 -1.497621,1.59122 -0.468017,0.53042 -0.873622,1.07642 -1.216817,1.63803 -0.312014,0.56161 -0.468016,1.07642 -0.468007,1.54442 l 12.448971,0 0,4.77366 -18.907462,0 c -0.0936,-0.312 -0.140404,-0.702 -0.140402,-1.17001 0.0312,-0.46801 0.0468,-0.79561 0.0468,-0.98282 -3e-6,-1.56001 0.280801,-2.99523 0.842412,-4.30566 0.592804,-1.31041 1.326014,-2.51162 2.199631,-3.60365 0.904806,-1.1232 1.856418,-2.15282 2.85484,-3.08884 1.029605,-0.9672 1.981217,-1.88761 2.85484,-2.76124 0.904801,-0.87359 1.63801,-1.71601 2.199631,-2.52724 0.592794,-0.81119 0.889198,-1.638 0.889213,-2.48043 -1.5e-5,-1.18559 -0.358819,-2.09041 -1.076415,-2.71444 -0.717623,-0.65518 -1.622435,-0.98279 -2.714439,-0.98281 -0.904822,2e-5 -1.856435,0.21843 -2.85484,0.65521 -0.998421,0.43683 -1.981234,1.17004 -2.948441,2.19963 l -2.854841,-4.02486 c 1.248015,-1.31039 2.683233,-2.2776 4.305661,-2.90164 1.653615,-0.62398 3.291637,-0.93598 4.914069,-0.93601 1.185604,3e-5 2.324419,0.17163 3.416448,0.5148 1.092,0.34324 2.059215,0.85804 2.901645,1.54443 0.84239,0.68643 1.5132,1.56004 2.01243,2.62083 0.49918,1.02964 0.74879,2.23086 0.74881,3.60365" />
      </g>
    </g>
  </g>
</svg>
