<?xml version="1.0" encoding="UTF-8" standalone="no"?>
<!-- Created with Inkscape (http://www.inkscape.org/) -->

<svg
   xmlns:dc="http://purl.org/dc/elements/1.1/"
   xmlns:cc="http://creativecommons.org/ns#"
   xmlns:rdf="http://www.w3.org/1999/02/22-rdf-syntax-ns#"
   xmlns:svg="http://www.w3.org/2000/svg"
   xmlns="http://www.w3.org/2000/svg"
   xmlns:sodipodi="http://sodipodi.sourceforge.net/DTD/sodipodi-0.dtd"
   xmlns:inkscape="http://www.inkscape.org/namespaces/inkscape"
   width="300"
   height="30"
   viewBox="0 0 79.374998 7.9375002"
   version="1.1"
   id="svg8"
   inkscape:version="0.92.1 r15371"
   sodipodi:docname="logo.svg">
  <defs
     id="defs2" />
  <sodipodi:namedview
     id="base"
     pagecolor="#ffffff"
     bordercolor="#666666"
     borderopacity="1.0"
     inkscape:pageopacity="0.0"
     inkscape:pageshadow="2"
     inkscape:zoom="2.56"
     inkscape:cx="136.33932"
     inkscape:cy="78.02565"
     inkscape:document-units="mm"
     inkscape:current-layer="flowRoot4491-8"
     showgrid="false"
     inkscape:window-width="1920"
     inkscape:window-height="1027"
     inkscape:window-x="-8"
     inkscape:window-y="-8"
     inkscape:window-maximized="1"
     units="px" />
  <metadata
     id="metadata5">
    <rdf:RDF>
      <cc:Work
         rdf:about="">
        <dc:format>image/svg+xml</dc:format>
        <dc:type
           rdf:resource="http://purl.org/dc/dcmitype/StillImage" />
        <dc:title></dc:title>
      </cc:Work>
    </rdf:RDF>
  </metadata>
  <g
     inkscape:label="Layer 1"
     inkscape:groupmode="layer"
     id="layer1"
     transform="translate(0,-289.06249)">
    <g
       aria-label="C.Huijse"
       transform="scale(0.26458333)"
       style="font-style:normal;font-variant:normal;font-weight:normal;font-stretch:normal;font-size:40px;line-height:1.25;font-family:'Share Tech Mono';-inkscape-font-specification:'Share Tech Mono';letter-spacing:0px;word-spacing:0px;fill:#000000;fill-opacity:1;stroke:none"
       id="flowRoot4485">
      <g
         aria-label="CRISTIAN_HUIJSE"
         transform="matrix(0.68570402,0,0,0.68570402,-24.735382,554.20856)"
         style="font-style:normal;font-variant:normal;font-weight:normal;font-stretch:normal;font-size:40px;line-height:1.25;font-family:'Share Tech Mono';-inkscape-font-specification:'Share Tech Mono';letter-spacing:0px;word-spacing:0px;fill:#000000;fill-opacity:1;stroke:none"
         id="flowRoot4491-8">
        <path
           d="m 104.52875,817.52411 q -3.48,0 -5.36,-1.68 -1.84,-1.72 -1.84,-5.12 v -14.4 q 0,-3.4 1.84,-5.08 1.88,-1.72 5.36,-1.72 h 5.68 v 3.04 h -6.08 q -1.48,0 -2.4,0.88 -0.92,0.88 -0.92,2.12 v 15.92 q 0,1.24 0.92,2.12 0.92,0.88 2.4,0.88 h 6.08 v 3.04 z"
           style="fill:#333333"
           id="path4490" />
        <path
           d="m 120.81125,805.92411 v 11.6 h -3.48 v -28 h 7.52 q 3.4,0 5.12,1.52 1.76,1.48 1.76,4.72 v 3.84 q 0,4.52 -3.6,5.64 l 5.56,12.28 h -3.8 l -5.16,-11.6 z m 7.44,-10.52 q 0,-1.52 -0.72,-2.2 -0.68,-0.68 -2.2,-0.68 h -4.52 v 10.4 h 4.52 q 1.52,0 2.2,-0.68 0.72,-0.72 0.72,-2.24 z"
           style="fill:#333333"
           id="path4492" />
        <path
           d="m 145.13375,814.60411 v -22.16 h -3.6 v -2.92 h 10.68 v 2.92 h -3.6 v 22.16 h 3.6 v 2.92 h -10.68 v -2.92 z"
           style="fill:#333333"
           id="path4494" />
        <path
           d="m 175.21625,810.72411 q 0,3.4 -1.88,5.12 -1.84,1.68 -5.32,1.68 h -5.68 v -3.04 h 6.08 q 1.48,0 2.4,-0.88 0.92,-0.88 0.92,-2.12 v -4.16 q 0,-1.2 -0.64,-1.92 -0.6,-0.76 -1.84,-0.76 h -1.2 q -2.96,0 -4.68,-1.72 -1.72,-1.76 -1.72,-5.08 v -1.52 q 0,-3.4 1.84,-5.08 1.88,-1.72 5.36,-1.72 h 5.72 v 3.04 h -6.12 q -1.48,0 -2.4,0.88 -0.92,0.88 -0.92,2.12 v 3.04 q 0,1.24 0.8,2.08 0.8,0.8 2.08,0.8 h 1.2 q 2.84,0 4.4,1.64 1.6,1.64 1.6,4.96 z"
           style="fill:#333333"
           id="path4496" />
        <path
           d="m 188.25875,817.52411 v -24.96 h -6.36 v -3.04 h 16.2 v 3.04 h -6.36 v 24.96 z"
           style="fill:#333333"
           id="path4498" />
        <path
           d="m 209.82125,814.60411 v -22.16 h -3.6 v -2.92 h 10.68 v 2.92 h -3.6 v 22.16 h 3.6 v 2.92 h -10.68 v -2.92 z"
           style="fill:#333333"
           id="path4500" />
        <path
           d="m 229.26375,810.44411 -1.56,7.08 h -3.56 l 6.76,-28 h 4.6 l 6.64,28 h -3.56 l -1.52,-7.08 z m 7.16,-3 -3.28,-15.28 -3.24,15.28 z"
           style="fill:#333333"
           id="path4502" />
        <path
           d="m 250.30625,817.52411 h -3.24 v -28 h 5.68 l 6.32,25.04 v -25.04 h 3.24 v 28 h -5.72 l -6.28,-25.04 z"
           style="fill:#333333"
           id="path4504" />
        <path
           d="m 286.34875,821.32411 v 3 h -20.16 v -3 z"
           style="fill:#ff6600"
           id="path4506" />
        <path
           d="m 293.71125,804.64411 v 12.88 h -3.48 v -28 h 3.48 v 12.16 h 8.24 v -12.16 h 3.48 v 28 h -3.48 v -12.88 z"
           style="fill:#333333"
           id="path4508" />
        <path
           d="m 327.07375,810.72411 q 0,3.4 -1.88,5.12 -1.84,1.68 -5.32,1.68 h -1 q -3.48,0 -5.36,-1.68 -1.84,-1.72 -1.84,-5.12 v -21.2 h 3.48 v 21.96 q 0,1.24 0.92,2.12 0.92,0.88 2.4,0.88 h 1.8 q 1.48,0 2.4,-0.88 0.92,-0.88 0.92,-2.12 v -21.96 h 3.48 z"
           style="fill:#333333"
           id="path4510" />
        <path
           d="m 339.19625,814.60411 v -22.16 h -3.6 v -2.92 h 10.68 v 2.92 h -3.6 v 22.16 h 3.6 v 2.92 h -10.68 v -2.92 z"
           style="fill:#333333"
           id="path4512" />
        <path
           d="m 368.11875,810.72411 q 0,3.4 -1.88,5.12 -1.84,1.68 -5.32,1.68 h -4.2 v -3.04 h 4.6 q 1.48,0 2.4,-0.88 0.92,-0.88 0.92,-2.12 v -18.96 h -6.44 v -3 h 9.92 z"
           style="fill:#333333"
           id="path4514" />
        <path
           d="m 390.84125,810.72411 q 0,3.4 -1.88,5.12 -1.84,1.68 -5.32,1.68 h -5.68 v -3.04 h 6.08 q 1.48,0 2.4,-0.88 0.92,-0.88 0.92,-2.12 v -4.16 q 0,-1.2 -0.64,-1.92 -0.6,-0.76 -1.84,-0.76 h -1.2 q -2.96,0 -4.68,-1.72 -1.72,-1.76 -1.72,-5.08 v -1.52 q 0,-3.4 1.84,-5.08 1.88,-1.72 5.36,-1.72 h 5.72 v 3.04 h -6.12 q -1.48,0 -2.4,0.88 -0.92,0.88 -0.92,2.12 v 3.04 q 0,1.24 0.8,2.08 0.8,0.8 2.08,0.8 h 1.2 q 2.84,0 4.4,1.64 1.6,1.64 1.6,4.96 z"
           style="fill:#333333"
           id="path4516" />
        <path
           d="m 412.32375,789.52411 v 2.92 h -9.88 v 9.16 h 8.88 v 2.92 h -8.88 v 10.08 h 9.88 v 2.92 h -13.36 v -28 z"
           style="fill:#333333"
           id="path4518" />
      </g>
    </g>
  </g>
</svg>
