<?xml version="1.0" encoding="UTF-8" standalone="no"?>
<!-- Created with Inkscape (http://www.inkscape.org/) -->

<svg
   xmlns:dc="http://purl.org/dc/elements/1.1/"
   xmlns:cc="http://creativecommons.org/ns#"
   xmlns:rdf="http://www.w3.org/1999/02/22-rdf-syntax-ns#"
   xmlns:svg="http://www.w3.org/2000/svg"
   xmlns="http://www.w3.org/2000/svg"
   xmlns:sodipodi="http://sodipodi.sourceforge.net/DTD/sodipodi-0.dtd"
   xmlns:inkscape="http://www.inkscape.org/namespaces/inkscape"
   width="150"
   height="50"
   viewBox="0 0 39.6875 13.229167"
   version="1.1"
   id="svg8"
   inkscape:version="0.92.1 r15371"
   sodipodi:docname="logo.svg">
  <defs
     id="defs2" />
  <sodipodi:namedview
     id="base"
     pagecolor="#ffffff"
     bordercolor="#666666"
     borderopacity="1.0"
     inkscape:pageopacity="0.0"
     inkscape:pageshadow="2"
     inkscape:zoom="2"
     inkscape:cx="-24.130261"
     inkscape:cy="109.85713"
     inkscape:document-units="mm"
     inkscape:current-layer="flowRoot4485"
     showgrid="false"
     inkscape:window-width="1920"
     inkscape:window-height="1027"
     inkscape:window-x="-8"
     inkscape:window-y="-8"
     inkscape:window-maximized="1"
     units="px" />
  <metadata
     id="metadata5">
    <rdf:RDF>
      <cc:Work
         rdf:about="">
        <dc:format>image/svg+xml</dc:format>
        <dc:type
           rdf:resource="http://purl.org/dc/dcmitype/StillImage" />
        <dc:title></dc:title>
      </cc:Work>
    </rdf:RDF>
  </metadata>
  <g
     inkscape:label="Layer 1"
     inkscape:groupmode="layer"
     id="layer1"
     transform="translate(0,-283.77082)">
    <g
       aria-label="C.Huijse"
       transform="matrix(0.20869212,0,0,0.20869212,-20.929864,102.38635)"
       style="font-style:normal;font-variant:normal;font-weight:normal;font-stretch:normal;font-size:40px;line-height:1.25;font-family:'Share Tech Mono';-inkscape-font-specification:'Share Tech Mono';letter-spacing:0px;word-spacing:0px;fill:#000000;fill-opacity:1;stroke:none"
       id="flowRoot4485">
      <path
         d="m 120.38813,911.44403 q -3.48001,0 -5.36,-1.68 -1.84,-1.72 -1.84,-5.12 v -14.4 q 0,-3.4 1.84,-5.08 1.87999,-1.72 5.36,-1.72 h 5.67999 v 3.04 h -6.08 q -1.47999,0 -2.39999,0.88 -0.92,0.88 -0.92,2.12 v 15.92 q 0,1.24 0.92,2.12 0.92,0.88 2.39999,0.88 h 6.08 v 3.04 z"
         style="fill:#333333"
         id="path4489" />
      <path
         d="m 143.19062,907.44403 v 4 h -4 v -4 z"
         style="fill:#ff6600"
         id="path4491" />
      <path
         d="m 158.63312,898.56403 v 12.88 h -3.48 v -28 h 3.48 v 12.16 h 8.24 v -12.16 h 3.48 v 28 h -3.48 v -12.88 z"
         style="fill:#333333"
         id="path4493" />
      <path
         d="m 188.19562,910.52403 q -1.31999,0.92 -3.2,0.92 h -1.36 q -3.24,0 -4.84,-1.52 -1.56,-1.52 -1.56,-4.88 v -13.6 h 3.4 v 14.4 q 0,1.2 0.68,1.92 0.72,0.68 1.92,0.68 h 2.16 q 1.28,0 1.88,-0.64 0.64,-0.64 0.72,-1.44 v -14.92 h 3.4 v 20 h -3.2 z"
         style="fill:#333333"
         id="path4495" />
      <path
         d="m 207.75812,883.44403 v 3.6 h -3.8 v -3.6 z m -9.48,11 v -3 h 9.28 v 17 h 5.92 v 3 h -9.32 v -17 z"
         style="fill:#333333"
         id="path4497" />
      <path
         d="m 232.72062,883.44403 v 3.6 h -3.8 v -3.6 z m -4.96,31.8 q 0.64,0 1,-0.36 0.4,-0.32 0.4,-0.84 v -19.6 h -5.88 v -3 h 9.28001 v 22.4 q 0,2.04 -1.16001,3.2 -1.16,1.2 -3,1.2 h -6.28 v -3 z"
         style="fill:#333333"
         id="path4499" />
      <path
         d="m 255.08312,906.44403 q 0,2.52 -1.56,3.76 -1.52,1.24 -4.44,1.24 h -5.96 v -3 h 6.36 q 1.08001,0 1.64,-0.44 0.56,-0.48 0.56,-1.36 v -2.12 q 0,-1.8 -1.72,-1.8 h -1.48 q -2.8,0 -4.2,-1.2 -1.36,-1.24 -1.36,-3.88 v -1.16 q 0,-2.68 1.52,-3.84 1.52,-1.2 4.48,-1.2 h 5.36 v 3 h -5.76 q -1,0 -1.6,0.48 -0.6,0.44 -0.6,1.32 v 1.44 q 0,0.92 0.52,1.36 0.56,0.44 1.4,0.44 h 1.36 q 2.68,0 4.08,1.32 1.4,1.28 1.4,3.84 z"
         style="fill:#333333"
         id="path4501" />
      <path
         d="m 270.32562,911.44403 q -3.51999,0 -5.16,-1.48 -1.64,-1.52 -1.64,-4.92 v -7.2 q 0,-3.44 1.48,-4.92 1.48001,-1.48 4.92001,-1.48 h 1.88 q 2.83999,0 4.27999,1.6 1.48,1.56 1.48,4.6 v 5.2 h -10.63999 v 3 q 0,1.24 0.76,1.92 0.75999,0.68 2.24,0.68 h 6.35999 v 3 z m 3.92001,-14.6 q 0,-1.04 -0.68001,-1.72 -0.68,-0.68 -1.72,-0.68 h -2.32 q -1.44,0 -2.03999,0.68 -0.56,0.64 -0.56,1.92 v 2.8 h 7.32 z"
         style="fill:#333333"
         id="path4503" />
    </g>
  </g>
</svg>
